PathFileType	4	(X/Y/Z)	C:\Users\willi\Documents\UniDataLokal\DATA_Hans_PhD\TD04\B\3DGAIT_B_W12\marker_experimental.trc
DataRate	CameraRate	NumFrames	NumMarkers	Units	OrigDataRate	OrigDataStartFrame	OrigNumFrames
100.000000	100.000000	4	97	mm	100.000000	71	191
Frame#	Time	RBAK			C7			CLAV			T10			STRN			RASI			RPSI			LPSI			LASI			LPELV			RPELV			RTHI1			RTHI2			RTHI3			RTHI			RKNE			RKNEM			RPAT			RLKNEL			RLKNEM			RLPAT			RTIB1			RTIB2			RTIB3			RTIB			RANK			RANKM			RHEEL			RTOE			RM5			LTHI1			LTHI2			LTHI3			LTHI			LKNE			LKNEM			LPAT			LLKNE			LLKNEM			LLPAT			LTIB1			LTIB2			LTIB3			LTIB			LANK			LANKM			LHEEL			LTOE			LM5			*49			*50			*51			*52			*53			*54			*55			*56			*57			*58			*59			*60			*61			*62			*63			*64			*65			*66			*67			*68			*69			*70			*71			*72			*73			*74			*75			*76			*77			*78			*79			*80			*81			*82			*83			*84			*85			*86			*87			*88			*89			*90			*91			*92			*93			*94			*95			*96			
		X1	Y1	Z1	X2	Y2	Z2	X3	Y3	Z3	X4	Y4	Z4	X5	Y5	Z5	X6	Y6	Z6	X7	Y7	Z7	X8	Y8	Z8	X9	Y9	Z9	X10	Y10	Z10	X11	Y11	Z11	X12	Y12	Z12	X13	Y13	Z13	X14	Y14	Z14	X15	Y15	Z15	X16	Y16	Z16	X17	Y17	Z17	X18	Y18	Z18	X19	Y19	Z19	X20	Y20	Z20	X21	Y21	Z21	X22	Y22	Z22	X23	Y23	Z23	X24	Y24	Z24	X25	Y25	Z25	X26	Y26	Z26	X27	Y27	Z27	X28	Y28	Z28	X29	Y29	Z29	X30	Y30	Z30	X31	Y31	Z31	X32	Y32	Z32	X33	Y33	Z33	X34	Y34	Z34	X35	Y35	Z35	X36	Y36	Z36	X37	Y37	Z37	X38	Y38	Z38	X39	Y39	Z39	X40	Y40	Z40	X41	Y41	Z41	X42	Y42	Z42	X43	Y43	Z43	X44	Y44	Z44	X45	Y45	Z45	X46	Y46	Z46	X47	Y47	Z47	X48	Y48	Z48	X49	Y49	Z49	X50	Y50	Z50	X51	Y51	Z51	X52	Y52	Z52	X53	Y53	Z53	X54	Y54	Z54	X55	Y55	Z55	X56	Y56	Z56	X57	Y57	Z57	X58	Y58	Z58	X59	Y59	Z59	X60	Y60	Z60	X61	Y61	Z61	X62	Y62	Z62	X63	Y63	Z63	X64	Y64	Z64	X65	Y65	Z65	X66	Y66	Z66	X67	Y67	Z67	X68	Y68	Z68	X69	Y69	Z69	X70	Y70	Z70	X71	Y71	Z71	X72	Y72	Z72	X73	Y73	Z73	X74	Y74	Z74	X75	Y75	Z75	X76	Y76	Z76	X77	Y77	Z77	X78	Y78	Z78	X79	Y79	Z79	X80	Y80	Z80	X81	Y81	Z81	X82	Y82	Z82	X83	Y83	Z83	X84	Y84	Z84	X85	Y85	Z85	X86	Y86	Z86	X87	Y87	Z87	X88	Y88	Z88	X89	Y89	Z89	X90	Y90	Z90	X91	Y91	Z91	X92	Y92	Z92	X93	Y93	Z93	X94	Y94	Z94	X95	Y95	Z95	X96	Y96	Z96	X97	Y97	Z97	

72	0.71	-801.8316040039061	1308.759521484375	295.3955688476562	-763.2194213867186	1353.338745117188	201.068374633789	-656.3270874023436	1268.6376953125	214.8701477050781	-792.8787841796874	975.8345336914062	214.0064086914062	-602.2061157226561	1022.294189453125	210.793960571289	-625.902587890625	879.292724609375	323.1165771484374	-807.900146484375	901.8195190429688	266.2823791503906	-815.0880126953125	904.0009155273438	178.9723052978515	-628.5882568359375	862.7032470703125	114.2933120727539	-718.1806640624999	936.2882080078125	64.02642059326168	-730.3549804687499	950.2081298828125	360.7738342285156	-692.423828125	606.092529296875	358.3385620117187	-634.0198974609375	569.53515625	376.3295593261718	-645.62744140625	511.1086425781251	343.2046813964843	-571.5957641601562	560.2158813476562	415.4291381835937	-543.4410400390625	471.0039367675782	361.6555786132812	-550.6993408203125	452.7137145996094	235.0755767822265	-482.4856872558593	476.9183044433594	297.0778198242187	-542.639404296875	437.6764221191407	360.6452026367187	-554.524169921875	402.6830139160157	240.8137664794922	-492.1470031738281	407.4957885742188	314.9544677734374	-473.8611755371094	307.5179748535157	320.0216674804687	-490.9369201660156	260.8270874023438	361.0137634277343	-457.2109375	214.3305969238282	321.9348754882812	-533.9057006835938	193.2809295654297	391.8034362792968	-478.1649475097656	83.76446533203128	343.7076110839843	-448.4595336914062	106.193344116211	276.0405883789062	-501.8890380859375	37.55485153198245	294.9386291503906	-342.4800109863281	79.66075134277345	359.2128295898438	-365.0495910644531	57.58545684814455	388.41455078125	-806.504150390625	627.0126953125	88.90731811523433	-773.9822387695312	570.6015625	72.82621765136714	-817.8579711914062	531.3010864257812	104.4926528930663	-740.8114013671875	530.61962890625	40.76711273193355	-769.1615600585938	435.7340087890626	104.2730102539062	-804.6475219726562	443.3753356933594	226.4707946777343	-718.2593383789062	427.4679260253907	176.833755493164	-794.7894287109375	406.0728454589844	102.820068359375	-821.6221313476562	405.2914733886719	220.6132507324218	-763.9310302734375	368.1458740234376	163.862808227539	-807.7029418945312	242.2718505859376	172.3986358642578	-836.1024780273438	193.5658111572266	131.9248352050781	-839.8717651367188	151.5987701416016	179.987564086914	-888.1674194335938	186.9909057617188	77.85183715820307	-910.0467529296875	77.43927764892584	144.4322814941406	-886.4570922851562	83.50270843505865	216.6039733886718	-960.0833740234375	44.78382110595709	188.5594024658203	-771.451904296875	36.439624786377	140.6513366699218	-806.8609619140625	14.20016956329351	106.3417816162109	nan	nan	nan	nan	nan	nan	nan	nan	nan	nan	nan	nan	nan	nan	nan	nan	nan	nan	nan	nan	nan	nan	nan	nan	nan	nan	nan	nan	nan	nan	nan	nan	nan	nan	nan	nan	nan	nan	nan	nan	nan	nan	nan	nan	nan	nan	nan	nan	nan	nan	nan	nan	nan	nan	nan	nan	nan	nan	nan	nan	nan	nan	nan	nan	nan	nan	nan	nan	nan	nan	nan	nan	nan	nan	nan	nan	nan	nan	nan	nan	nan	nan	nan	nan	nan	nan	nan	nan	nan	nan	nan	nan	nan	nan	nan	nan	nan	nan	nan	nan	nan	nan	nan	nan	nan	nan	nan	nan	nan	nan	nan	nan	nan	nan	nan	nan	nan	nan	nan	nan	nan	nan	nan	nan	nan	nan	nan	nan	nan	nan	nan	nan	nan	nan	nan	nan	nan	nan	nan	nan	nan	nan	nan	nan	
73	0.72	-791.7266235351561	1306.84228515625	296.0150146484374	-752.9539184570311	1351.6142578125	201.943618774414	-645.9968872070311	1266.877685546875	215.7013549804687	-782.1995239257811	974.0762329101562	215.2193908691406	-591.6177368164061	1020.529846191406	211.0197296142578	-614.0970458984375	877.4257202148438	322.7044677734374	-796.7865600585938	900.1001586914062	267.7488098144531	-804.8557739257812	902.376220703125	180.6117553710937	-619.11083984375	860.9853515625	113.7957916259765	-709.3369140624999	934.5296020507812	64.55460357666011	-718.3426513671874	948.2807006835938	361.5791625976562	-682.54248046875	604.1903686523438	359.9262084960937	-624.187744140625	567.4700317382812	377.3365783691406	-637.1978759765625	508.9890136718751	345.1163024902343	-561.3340454101562	557.6710815429688	415.6268310546874	-534.385498046875	468.1651611328126	362.1694335937499	-546.4611206054688	448.0512084960938	235.8157043457031	-475.6413269042968	474.1888427734376	295.5704956054687	-532.8850708007812	435.0409851074219	361.2253417968749	-548.1951293945312	398.4045410156251	242.0220031738281	-482.5531616210938	406.1377868652344	314.2680969238281	-459.7144470214844	307.4481811523438	319.7347412109375	-473.4463500976562	260.4424438476563	361.7464294433593	-438.8473815917969	215.0771179199219	322.0181884765625	-512.1864013671875	191.3221893310547	394.7079162597656	-452.5708312988281	83.68983459472659	345.7405090332031	-426.4867858886719	106.986557006836	276.9435729980469	-476.0874328613281	36.01422882080081	298.3031921386718	-315.3943176269531	85.85510253906251	355.4673156738281	-335.7142028808594	62.81899261474612	385.865478515625	-799.1888427734375	626.67578125	90.23141479492183	-767.444580078125	569.9817504882812	73.46087646484371	-811.2437744140625	530.9996948242188	105.652114868164	-734.934326171875	529.7347412109375	40.90759277343746	-763.4137573242188	434.8989868164063	104.5622100830078	-797.3831176757812	442.7097778320313	227.1035003662109	-711.9491577148438	425.9094238281251	176.5663604736328	-789.3724975585938	405.4944152832032	103.3405532836914	-815.1359252929688	404.8841247558594	221.3859405517578	-758.723876953125	367.0918273925782	164.1088104248046	-804.4843139648438	241.7834625244141	172.7579345703124	-833.7902221679688	193.5912322998047	132.2995910644531	-837.9392700195312	151.6225280761719	180.3488006591796	-886.1841430664062	187.9133300781251	78.50434875488276	-909.4613037109375	78.58036804199224	145.0185089111328	-885.4684448242188	84.25272369384771	217.0880126953124	-959.7819213867188	46.45215988159185	189.3346405029296	-771.4934692382812	36.41069030761724	140.7068176269531	-807.1704711914062	14.33988380432134	106.5653305053711	nan	nan	nan	nan	nan	nan	nan	nan	nan	nan	nan	nan	nan	nan	nan	nan	nan	nan	nan	nan	nan	nan	nan	nan	nan	nan	nan	nan	nan	nan	nan	nan	nan	nan	nan	nan	nan	nan	nan	nan	nan	nan	nan	nan	nan	nan	nan	nan	nan	nan	nan	nan	nan	nan	nan	nan	nan	nan	nan	nan	nan	nan	nan	nan	nan	nan	nan	nan	nan	nan	nan	nan	nan	nan	nan	nan	nan	nan	nan	nan	nan	nan	nan	nan	nan	nan	nan	nan	nan	nan	nan	nan	nan	nan	nan	nan	nan	nan	nan	nan	nan	nan	nan	nan	nan	nan	nan	nan	nan	nan	nan	nan	nan	nan	nan	nan	nan	nan	nan	nan	nan	nan	nan	nan	nan	nan	nan	nan	nan	nan	nan	nan	nan	nan	nan	nan	nan	nan	nan	nan	nan	nan	nan	nan	
74	0.73	-781.5261840820311	1304.964599609375	296.7974243164062	-742.6348266601561	1349.947387695312	202.9647521972656	-635.5830078124999	1265.20458984375	216.6515197753906	-771.3591918945311	972.36767578125	216.4675598144531	-580.8809204101561	1018.850036621094	211.3369140625	-602.1675415039062	875.6275024414062	322.3652954101562	-785.5258178710938	898.4539794921875	269.2390136718749	-794.4385375976562	900.7960815429688	182.2688293457031	-609.454833984375	859.3231201171875	113.3864364624023	-700.3129272460936	932.816162109375	65.16432189941402	-706.2079467773436	946.4269409179688	362.4314575195312	-672.0884399414062	602.5191650390625	361.5896301269531	-613.7826538085938	565.6358032226562	378.4192504882812	-628.0750732421875	507.0926208496094	347.1661682128906	-550.32275390625	555.5006103515625	415.7436218261718	-524.7431640625	465.6859741210938	362.6296386718749	-541.6103515625	443.8269348144532	236.6619873046875	-468.2796325683593	471.7065124511719	294.1025695800781	-522.7067260742188	432.7122192382813	361.7520446777343	-541.3822021484375	394.5188598632813	243.280288696289	-472.7798461914062	404.8085327148438	313.6312866210937	-446.2406005859375	307.26806640625	319.4195556640625	-457.111083984375	260.1855163574219	362.3473205566406	-422.0293273925781	215.7010498046875	322.006103515625	-492.2426452636719	190.022201538086	397.2904663085937	-429.8019104003906	83.96932220458987	347.4596252441406	-407.004638671875	107.728759765625	277.6563110351562	-453.3175048828125	35.01523208618167	301.3302307128906	-291.5643920898438	91.3075408935547	351.4918518066406	-309.7637329101562	67.5537796020508	383.0023498535156	-791.5218505859375	626.2771606445312	91.63987731933589	-760.5146484375	569.3304443359375	74.20111083984371	-804.2117309570312	530.633056640625	106.909927368164	-728.6363525390625	528.841064453125	41.16039657592769	-757.1988525390625	434.0443420410157	104.9565505981445	-789.5809326171875	441.9554443359376	227.7940063476562	-705.1746215820312	424.3492431640626	176.4212036132812	-783.4945678710938	404.9014587402344	103.9400558471679	-808.10693359375	404.4102783203126	222.2128143310546	-753.0999145507812	366.0206604003907	164.4522552490234	-801.0172729492188	241.3221893310547	173.178970336914	-831.2353515625	193.6966552734376	132.6968994140624	-835.8311767578125	151.7480163574219	180.711441040039	-883.8869018554688	188.9806365966797	79.12457275390619	-908.7520141601562	79.91641235351568	145.5240478515624	-884.4071655273438	85.15396118164068	217.5086364746093	-959.4295043945312	48.40629196166998	189.994155883789	-771.5087280273438	36.38930130004888	140.7834777832031	-807.4661865234375	14.48879241943364	106.8121109008789	nan	nan	nan	nan	nan	nan	nan	nan	nan	nan	nan	nan	nan	nan	nan	nan	nan	nan	nan	nan	nan	nan	nan	nan	nan	nan	nan	nan	nan	nan	nan	nan	nan	nan	nan	nan	nan	nan	nan	nan	nan	nan	nan	nan	nan	nan	nan	nan	nan	nan	nan	nan	nan	nan	nan	nan	nan	nan	nan	nan	nan	nan	nan	nan	nan	nan	nan	nan	nan	nan	nan	nan	nan	nan	nan	nan	nan	nan	nan	nan	nan	nan	nan	nan	nan	nan	nan	nan	nan	nan	nan	nan	nan	nan	nan	nan	nan	nan	nan	nan	nan	nan	nan	nan	nan	nan	nan	nan	nan	nan	nan	nan	nan	nan	nan	nan	nan	nan	nan	nan	nan	nan	nan	nan	nan	nan	nan	nan	nan	nan	nan	nan	nan	nan	nan	nan	nan	nan	nan	nan	nan	nan	nan	nan	
75	0.74	-771.2265014648436	1303.151123046875	297.7437744140624	-732.2597045898436	1348.361938476562	204.1300201416015	-625.0838623046874	1263.645629882812	217.7212219238281	-760.3532714843749	970.7343139648438	217.7400970458984	-569.9901123046874	1017.28515625	211.7563018798828	-590.12548828125	873.9385986328125	322.1272277832031	-774.1180419921875	896.9113159179688	270.7422790527343	-783.8218994140625	899.2849731445312	183.9275817871093	-599.586181640625	857.7382202148438	113.0960235595703	-691.0568237304686	931.1719970703125	65.86098480224605	-693.9691772460936	944.6881713867188	363.3335876464843	-661.01904296875	601.111328125	363.2815551757812	-602.7622680664062	564.06494140625	379.5304565429687	-618.1695556640625	505.4519958496094	349.2600402832031	-538.5358276367188	553.74169921875	415.7474060058593	-514.4401245117188	463.6278991699219	362.9877929687499	-535.75634765625	440.2133178710938	237.5395965576172	-460.2478027343749	469.5620727539062	292.7190551757812	-512.0341186523438	430.7338256835938	362.1980285644531	-533.8519897460938	391.1514282226563	244.514892578125	-462.7329406738281	403.5380249023438	313.0509948730469	-433.3859558105469	306.9154968261719	319.0835876464844	-441.9577331542969	259.9248352050781	362.8099365234375	-406.7529296875	216.0375213623047	321.9181213378906	-474.2491455078125	189.1785888671875	399.4809875488281	-410.0713195800781	84.28708648681643	348.8567504882812	-390.0757141113281	108.17431640625	278.1884460449219	-433.7991333007812	34.30638122558597	303.959228515625	-271.2037048339844	95.45941162109376	347.5869140625	-287.5224609375	71.23641204833986	380.0631713867188	-783.4694213867188	625.824462890625	93.12898254394527	-753.1499633789062	568.6553344726562	75.05553436279293	-796.72802734375	530.2083129882812	108.2631454467773	-721.8662109375	527.9496459960938	41.54297637939449	-750.4840087890625	433.1810607910157	105.4595489501953	-781.2548217773438	441.1113281250001	228.5371398925781	-697.903564453125	422.7934570312501	176.4122924804687	-777.1259155273438	404.3075866699219	104.6150970458984	-800.5240478515625	403.8720703125001	223.076187133789	-747.0354614257812	364.9365844726563	164.8902740478515	-797.2824096679688	240.9114837646485	173.6497802734374	-828.4227905273438	193.9114532470704	133.1058959960937	-833.5504760742188	152.0024108886719	181.0671386718749	-881.2489013671875	190.2181396484376	79.68968200683588	-907.9046020507812	81.48621368408209	145.9251556396484	-883.2705688476562	86.24240112304693	217.8465423583984	-959.0169677734375	50.68989944458013	190.5019073486328	-771.4916381835938	36.38021850585942	140.8733367919921	-807.7343139648438	14.64881038665776	107.0758590698242	nan	nan	nan	nan	nan	nan	nan	nan	nan	nan	nan	nan	nan	nan	nan	nan	nan	nan	nan	nan	nan	nan	nan	nan	nan	nan	nan	nan	nan	nan	nan	nan	nan	nan	nan	nan	nan	nan	nan	nan	nan	nan	nan	nan	nan	nan	nan	nan	nan	nan	nan	nan	nan	nan	nan	nan	nan	nan	nan	nan	nan	nan	nan	nan	nan	nan	nan	nan	nan	nan	nan	nan	nan	nan	nan	nan	nan	nan	nan	nan	nan	nan	nan	nan	nan	nan	nan	nan	nan	nan	nan	nan	nan	nan	nan	nan	nan	nan	nan	nan	nan	nan	nan	nan	nan	nan	nan	nan	nan	nan	nan	nan	nan	nan	nan	nan	nan	nan	nan	nan	nan	nan	nan	nan	nan	nan	nan	nan	nan	nan	nan	nan	nan	nan	nan	nan	nan	nan	nan	nan	nan	nan	nan	nan	
